<mxfile host="65bd71144e">
    <diagram id="zOqos-txQXJ23ppPBPeZ" name="Page-1">
        <mxGraphModel dx="3143" dy="1131" grid="1" gridSize="10" guides="1" tooltips="1" connect="1" arrows="1" fold="1" page="1" pageScale="1" pageWidth="850" pageHeight="1100" math="0" shadow="0">
            <root>
                <mxCell id="0"/>
                <mxCell id="1" parent="0"/>
                <mxCell id="19" style="edgeStyle=none;html=1;fontSize=14;" parent="1" edge="1">
                    <mxGeometry relative="1" as="geometry">
                        <mxPoint x="-760" y="121" as="sourcePoint"/>
                        <mxPoint x="-570" y="120" as="targetPoint"/>
                        <Array as="points">
                            <mxPoint x="-690" y="120"/>
                        </Array>
                    </mxGeometry>
                </mxCell>
                <mxCell id="28" value="&lt;font style=&quot;font-size: 18px;&quot;&gt;Client User Interface&lt;/font&gt;" style="whiteSpace=wrap;html=1;" parent="1" vertex="1">
                    <mxGeometry x="-650" y="20" width="170" height="60" as="geometry"/>
                </mxCell>
                <mxCell id="63" value="&lt;font style=&quot;font-size: 14px;&quot;&gt;Start&lt;/font&gt;" style="whiteSpace=wrap;html=1;" parent="1" vertex="1">
                    <mxGeometry x="-690" y="90" width="60" height="30" as="geometry"/>
                </mxCell>
                <mxCell id="65" value="&lt;font style=&quot;font-size: 18px;&quot;&gt;Client Session&lt;/font&gt;" style="whiteSpace=wrap;html=1;" parent="1" vertex="1">
                    <mxGeometry x="-425" y="20" width="170" height="60" as="geometry"/>
                </mxCell>
                <mxCell id="66" value="&lt;span style=&quot;font-size: 18px;&quot;&gt;MbedTLS&lt;/span&gt;" style="whiteSpace=wrap;html=1;" parent="1" vertex="1">
                    <mxGeometry x="-200" y="20" width="170" height="60" as="geometry"/>
                </mxCell>
                <mxCell id="67" value="&lt;span style=&quot;font-size: 18px;&quot;&gt;Client Communication&lt;/span&gt;" style="whiteSpace=wrap;html=1;" parent="1" vertex="1">
                    <mxGeometry x="40" y="20" width="170" height="60" as="geometry"/>
                </mxCell>
                <mxCell id="68" value="&lt;span style=&quot;font-size: 18px;&quot;&gt;Server Communication&lt;/span&gt;" style="whiteSpace=wrap;html=1;" parent="1" vertex="1">
                    <mxGeometry x="280" y="20" width="170" height="60" as="geometry"/>
                </mxCell>
                <mxCell id="69" value="&lt;span style=&quot;font-size: 18px;&quot;&gt;MbedTLS&lt;/span&gt;" style="whiteSpace=wrap;html=1;" parent="1" vertex="1">
                    <mxGeometry x="520" y="20" width="170" height="60" as="geometry"/>
                </mxCell>
                <mxCell id="70" value="&lt;font style=&quot;font-size: 14px;&quot;&gt;Create Session&lt;/font&gt;" style="whiteSpace=wrap;html=1;" parent="1" vertex="1">
                    <mxGeometry x="-510" y="120" width="110" height="40" as="geometry"/>
                </mxCell>
                <mxCell id="71" style="edgeStyle=none;html=1;exitX=1;exitY=0.5;exitDx=0;exitDy=0;fontSize=14;" parent="1" edge="1">
                    <mxGeometry relative="1" as="geometry">
                        <mxPoint x="-560" y="160" as="sourcePoint"/>
                        <mxPoint x="-350" y="160" as="targetPoint"/>
                        <Array as="points">
                            <mxPoint x="-510" y="160"/>
                        </Array>
                    </mxGeometry>
                </mxCell>
                <mxCell id="74" value="" style="endArrow=none;dashed=1;html=1;rounded=1;fontSize=14;targetPerimeterSpacing=0;entryX=0.541;entryY=1.033;entryDx=0;entryDy=0;entryPerimeter=0;" parent="1" target="28" edge="1">
                    <mxGeometry width="50" height="50" relative="1" as="geometry">
                        <mxPoint x="-558" y="1000" as="sourcePoint"/>
                        <mxPoint x="-560" y="150" as="targetPoint"/>
                    </mxGeometry>
                </mxCell>
                <mxCell id="75" value="" style="endArrow=none;dashed=1;html=1;rounded=1;fontSize=14;targetPerimeterSpacing=0;entryX=0.541;entryY=1.033;entryDx=0;entryDy=0;entryPerimeter=0;" parent="1" edge="1">
                    <mxGeometry width="50" height="50" relative="1" as="geometry">
                        <mxPoint x="-340" y="1000" as="sourcePoint"/>
                        <mxPoint x="-340.5000000000002" y="80.00000000000001" as="targetPoint"/>
                    </mxGeometry>
                </mxCell>
                <mxCell id="76" value="" style="endArrow=none;dashed=1;html=1;rounded=1;fontSize=14;targetPerimeterSpacing=0;startArrow=none;" parent="1" source="87" edge="1">
                    <mxGeometry width="50" height="50" relative="1" as="geometry">
                        <mxPoint x="-120" y="870" as="sourcePoint"/>
                        <mxPoint x="-120" y="80" as="targetPoint"/>
                    </mxGeometry>
                </mxCell>
                <mxCell id="77" value="" style="endArrow=none;dashed=1;html=1;rounded=1;fontSize=14;targetPerimeterSpacing=0;entryX=0.541;entryY=1.033;entryDx=0;entryDy=0;entryPerimeter=0;startArrow=none;" parent="1" edge="1">
                    <mxGeometry width="50" height="50" relative="1" as="geometry">
                        <mxPoint x="120" y="1000" as="sourcePoint"/>
                        <mxPoint x="124.5" y="80" as="targetPoint"/>
                    </mxGeometry>
                </mxCell>
                <mxCell id="78" value="" style="endArrow=none;dashed=1;html=1;rounded=1;fontSize=14;targetPerimeterSpacing=0;entryX=0.541;entryY=1.033;entryDx=0;entryDy=0;entryPerimeter=0;" parent="1" edge="1">
                    <mxGeometry width="50" height="50" relative="1" as="geometry">
                        <mxPoint x="360" y="1000" as="sourcePoint"/>
                        <mxPoint x="364.5" y="80" as="targetPoint"/>
                    </mxGeometry>
                </mxCell>
                <mxCell id="79" value="" style="endArrow=none;dashed=1;html=1;rounded=1;fontSize=14;targetPerimeterSpacing=0;entryX=0.541;entryY=1.033;entryDx=0;entryDy=0;entryPerimeter=0;" parent="1" edge="1">
                    <mxGeometry width="50" height="50" relative="1" as="geometry">
                        <mxPoint x="600" y="1000" as="sourcePoint"/>
                        <mxPoint x="604.5" y="80" as="targetPoint"/>
                    </mxGeometry>
                </mxCell>
                <mxCell id="80" style="edgeStyle=none;html=1;exitX=1;exitY=0.5;exitDx=0;exitDy=0;fontSize=14;" parent="1" edge="1">
                    <mxGeometry relative="1" as="geometry">
                        <mxPoint x="-340" y="470" as="sourcePoint"/>
                        <mxPoint x="-550" y="470" as="targetPoint"/>
                        <Array as="points">
                            <mxPoint x="-460" y="470"/>
                        </Array>
                    </mxGeometry>
                </mxCell>
                <mxCell id="81" value="&lt;font style=&quot;font-size: 14px;&quot;&gt;Terminate Client&lt;/font&gt;" style="whiteSpace=wrap;html=1;" parent="1" vertex="1">
                    <mxGeometry x="-500" y="430" width="110" height="40" as="geometry"/>
                </mxCell>
                <mxCell id="82" value="" style="endArrow=none;dashed=1;html=1;rounded=1;fontSize=14;targetPerimeterSpacing=0;entryX=0.541;entryY=1.033;entryDx=0;entryDy=0;entryPerimeter=0;" parent="1" edge="1">
                    <mxGeometry width="50" height="50" relative="1" as="geometry">
                        <mxPoint x="-760" y="1000" as="sourcePoint"/>
                        <mxPoint x="-760.0000000000002" y="80.00000000000001" as="targetPoint"/>
                        <Array as="points">
                            <mxPoint x="-760" y="360"/>
                        </Array>
                    </mxGeometry>
                </mxCell>
                <mxCell id="83" style="edgeStyle=none;html=1;exitX=1;exitY=0.5;exitDx=0;exitDy=0;fontSize=14;" parent="1" edge="1">
                    <mxGeometry relative="1" as="geometry">
                        <mxPoint x="-560" y="510" as="sourcePoint"/>
                        <mxPoint x="-750" y="510" as="targetPoint"/>
                        <Array as="points"/>
                    </mxGeometry>
                </mxCell>
                <mxCell id="84" value="&lt;font style=&quot;font-size: 14px;&quot;&gt;Terminated&lt;/font&gt;" style="whiteSpace=wrap;html=1;" parent="1" vertex="1">
                    <mxGeometry x="-710" y="470" width="110" height="40" as="geometry"/>
                </mxCell>
                <mxCell id="85" style="edgeStyle=none;html=1;exitX=1;exitY=0.5;exitDx=0;exitDy=0;fontSize=14;" parent="1" edge="1">
                    <mxGeometry relative="1" as="geometry">
                        <mxPoint x="-340" y="200" as="sourcePoint"/>
                        <mxPoint x="110" y="200" as="targetPoint"/>
                        <Array as="points">
                            <mxPoint x="-290" y="200"/>
                        </Array>
                    </mxGeometry>
                </mxCell>
                <mxCell id="86" value="&lt;font style=&quot;font-size: 14px;&quot;&gt;Create Communication&lt;/font&gt;" style="whiteSpace=wrap;html=1;" parent="1" vertex="1">
                    <mxGeometry x="-200" y="160" width="160" height="40" as="geometry"/>
                </mxCell>
                <mxCell id="89" value="" style="endArrow=classic;html=1;rounded=1;fontSize=14;targetPerimeterSpacing=0;" parent="1" edge="1">
                    <mxGeometry width="50" height="50" relative="1" as="geometry">
                        <mxPoint x="120" y="270" as="sourcePoint"/>
                        <mxPoint x="-330" y="270" as="targetPoint"/>
                        <Array as="points">
                            <mxPoint x="-100" y="270"/>
                        </Array>
                    </mxGeometry>
                </mxCell>
                <mxCell id="90" style="edgeStyle=none;html=1;exitX=1;exitY=0.5;exitDx=0;exitDy=0;fontSize=14;" parent="1" edge="1">
                    <mxGeometry relative="1" as="geometry">
                        <mxPoint x="-340" y="340" as="sourcePoint"/>
                        <mxPoint x="110" y="340" as="targetPoint"/>
                        <Array as="points">
                            <mxPoint x="-290" y="340"/>
                        </Array>
                    </mxGeometry>
                </mxCell>
                <mxCell id="92" value="&lt;font style=&quot;font-size: 14px;&quot;&gt;Establish Connection&lt;/font&gt;" style="whiteSpace=wrap;html=1;" parent="1" vertex="1">
                    <mxGeometry x="-200" y="300" width="160" height="40" as="geometry"/>
                </mxCell>
                <mxCell id="87" value="&lt;font style=&quot;font-size: 14px;&quot;&gt;Communication Created&lt;/font&gt;" style="whiteSpace=wrap;html=1;" parent="1" vertex="1">
                    <mxGeometry x="-200" y="230" width="160" height="40" as="geometry"/>
                </mxCell>
                <mxCell id="94" value="&lt;font style=&quot;font-size: 14px;&quot;&gt;Connection Failed&lt;/font&gt;" style="whiteSpace=wrap;html=1;" parent="1" vertex="1">
                    <mxGeometry x="-200" y="370" width="160" height="40" as="geometry"/>
                </mxCell>
                <mxCell id="95" value="" style="endArrow=classic;html=1;rounded=1;fontSize=14;targetPerimeterSpacing=0;" parent="1" edge="1">
                    <mxGeometry width="50" height="50" relative="1" as="geometry">
                        <mxPoint x="120" y="410" as="sourcePoint"/>
                        <mxPoint x="-330" y="410" as="targetPoint"/>
                        <Array as="points">
                            <mxPoint x="-100" y="410"/>
                        </Array>
                    </mxGeometry>
                </mxCell>
                <mxCell id="96" value="&lt;font style=&quot;font-size: 14px;&quot;&gt;Connected&lt;/font&gt;" style="whiteSpace=wrap;html=1;" parent="1" vertex="1">
                    <mxGeometry x="-200" y="480" width="160" height="40" as="geometry"/>
                </mxCell>
                <mxCell id="97" value="" style="endArrow=classic;html=1;rounded=1;fontSize=14;targetPerimeterSpacing=0;" parent="1" edge="1">
                    <mxGeometry width="50" height="50" relative="1" as="geometry">
                        <mxPoint x="120" y="520" as="sourcePoint"/>
                        <mxPoint x="-330" y="520" as="targetPoint"/>
                        <Array as="points">
                            <mxPoint x="-100" y="520"/>
                        </Array>
                    </mxGeometry>
                </mxCell>
                <mxCell id="98" style="edgeStyle=none;html=1;exitX=1;exitY=0.5;exitDx=0;exitDy=0;fontSize=14;" parent="1" edge="1">
                    <mxGeometry relative="1" as="geometry">
                        <mxPoint x="-340" y="600" as="sourcePoint"/>
                        <mxPoint x="-130" y="600" as="targetPoint"/>
                        <Array as="points">
                            <mxPoint x="-290" y="600"/>
                        </Array>
                    </mxGeometry>
                </mxCell>
                <mxCell id="99" value="&lt;font style=&quot;font-size: 14px;&quot;&gt;SHA256(SECRET)&lt;/font&gt;" style="whiteSpace=wrap;html=1;" parent="1" vertex="1">
                    <mxGeometry x="-300" y="560" width="140" height="40" as="geometry"/>
                </mxCell>
                <mxCell id="100" style="edgeStyle=none;html=1;fontSize=14;" parent="1" edge="1">
                    <mxGeometry relative="1" as="geometry">
                        <mxPoint x="-120" y="650" as="sourcePoint"/>
                        <mxPoint x="-335" y="650" as="targetPoint"/>
                        <Array as="points">
                            <mxPoint x="-175" y="650"/>
                            <mxPoint x="-245" y="650"/>
                        </Array>
                    </mxGeometry>
                </mxCell>
                <mxCell id="101" value="&lt;font style=&quot;font-size: 14px;&quot;&gt;HSECRET&lt;/font&gt;" style="whiteSpace=wrap;html=1;" parent="1" vertex="1">
                    <mxGeometry x="-300" y="610" width="140" height="40" as="geometry"/>
                </mxCell>
                <mxCell id="102" style="edgeStyle=none;html=1;exitX=1;exitY=0.5;exitDx=0;exitDy=0;fontSize=14;" parent="1" edge="1">
                    <mxGeometry relative="1" as="geometry">
                        <mxPoint x="-340" y="710" as="sourcePoint"/>
                        <mxPoint x="-130" y="710" as="targetPoint"/>
                        <Array as="points">
                            <mxPoint x="-290" y="710"/>
                        </Array>
                    </mxGeometry>
                </mxCell>
                <mxCell id="103" value="&lt;font style=&quot;font-size: 14px;&quot;&gt;Generate clientRSA&lt;/font&gt;" style="whiteSpace=wrap;html=1;" parent="1" vertex="1">
                    <mxGeometry x="-300" y="670" width="140" height="40" as="geometry"/>
                </mxCell>
                <mxCell id="104" style="edgeStyle=none;html=1;fontSize=14;" parent="1" edge="1">
                    <mxGeometry relative="1" as="geometry">
                        <mxPoint x="-120" y="770" as="sourcePoint"/>
                        <mxPoint x="-330" y="770" as="targetPoint"/>
                        <Array as="points">
                            <mxPoint x="-170" y="770"/>
                            <mxPoint x="-240" y="770"/>
                        </Array>
                    </mxGeometry>
                </mxCell>
                <mxCell id="105" value="&lt;span style=&quot;font-size: 14px;&quot;&gt;ClientRSA&lt;/span&gt;" style="whiteSpace=wrap;html=1;" parent="1" vertex="1">
                    <mxGeometry x="-300" y="730" width="140" height="40" as="geometry"/>
                </mxCell>
                <mxCell id="107" style="edgeStyle=none;html=1;fontSize=14;" parent="1" edge="1">
                    <mxGeometry relative="1" as="geometry">
                        <mxPoint x="-340" y="830" as="sourcePoint"/>
                        <mxPoint x="110" y="830" as="targetPoint"/>
                        <Array as="points">
                            <mxPoint x="-285" y="830"/>
                        </Array>
                    </mxGeometry>
                </mxCell>
                <mxCell id="108" value="Pub + HMAC (Pub, HSEC)" style="whiteSpace=wrap;html=1;" parent="1" vertex="1">
                    <mxGeometry x="-185" y="790" width="140" height="40" as="geometry"/>
                </mxCell>
                <mxCell id="116" value="" style="endArrow=none;html=1;" edge="1" parent="1">
                    <mxGeometry width="50" height="50" relative="1" as="geometry">
                        <mxPoint x="-780" y="100" as="sourcePoint"/>
                        <mxPoint x="-760" y="80" as="targetPoint"/>
                    </mxGeometry>
                </mxCell>
                <mxCell id="117" value="" style="endArrow=none;html=1;" edge="1" parent="1">
                    <mxGeometry width="50" height="50" relative="1" as="geometry">
                        <mxPoint x="-760" y="80" as="sourcePoint"/>
                        <mxPoint x="-740" y="100" as="targetPoint"/>
                    </mxGeometry>
                </mxCell>
                <mxCell id="118" value="" style="endArrow=none;html=1;" edge="1" parent="1">
                    <mxGeometry width="50" height="50" relative="1" as="geometry">
                        <mxPoint x="-760" y="80" as="sourcePoint"/>
                        <mxPoint x="-760" y="60" as="targetPoint"/>
                    </mxGeometry>
                </mxCell>
                <mxCell id="119" value="" style="endArrow=none;html=1;" edge="1" parent="1">
                    <mxGeometry width="50" height="50" relative="1" as="geometry">
                        <mxPoint x="-780" y="60" as="sourcePoint"/>
                        <mxPoint x="-740" y="60.5" as="targetPoint"/>
                    </mxGeometry>
                </mxCell>
                <mxCell id="120" value="" style="ellipse;whiteSpace=wrap;html=1;aspect=fixed;" vertex="1" parent="1">
                    <mxGeometry x="-770" y="40" width="20" height="20" as="geometry"/>
                </mxCell>
                <mxCell id="130" value="" style="endArrow=none;dashed=1;html=1;exitX=0.5;exitY=0;exitDx=0;exitDy=0;" edge="1" parent="1" source="92">
                    <mxGeometry width="50" height="50" relative="1" as="geometry">
                        <mxPoint x="-140" y="290" as="sourcePoint"/>
                        <mxPoint x="-120" y="270" as="targetPoint"/>
                    </mxGeometry>
                </mxCell>
                <mxCell id="132" value="" style="endArrow=none;dashed=1;html=1;exitX=0.5;exitY=0;exitDx=0;exitDy=0;" edge="1" parent="1" source="96">
                    <mxGeometry width="50" height="50" relative="1" as="geometry">
                        <mxPoint x="-120.5" y="430" as="sourcePoint"/>
                        <mxPoint x="-120.5" y="400" as="targetPoint"/>
                    </mxGeometry>
                </mxCell>
                <mxCell id="133" value="" style="endArrow=none;dashed=1;html=1;exitX=0.5;exitY=0;exitDx=0;exitDy=0;" edge="1" parent="1">
                    <mxGeometry width="50" height="50" relative="1" as="geometry">
                        <mxPoint x="-120.5" y="370" as="sourcePoint"/>
                        <mxPoint x="-120.5" y="340" as="targetPoint"/>
                    </mxGeometry>
                </mxCell>
                <mxCell id="135" value="" style="endArrow=none;dashed=1;html=1;" edge="1" parent="1">
                    <mxGeometry width="50" height="50" relative="1" as="geometry">
                        <mxPoint x="-120" y="790" as="sourcePoint"/>
                        <mxPoint x="-120.5" y="520" as="targetPoint"/>
                    </mxGeometry>
                </mxCell>
                <mxCell id="136" style="edgeStyle=none;html=1;exitX=1;exitY=0.5;exitDx=0;exitDy=0;fontSize=14;" parent="1" edge="1">
                    <mxGeometry relative="1" as="geometry">
                        <mxPoint x="120" y="579.5" as="sourcePoint"/>
                        <mxPoint x="350" y="580.5" as="targetPoint"/>
                        <Array as="points">
                            <mxPoint x="170" y="579.5"/>
                        </Array>
                    </mxGeometry>
                </mxCell>
                <mxCell id="140" value="&lt;font style=&quot;font-size: 14px;&quot;&gt;Send Command&lt;/font&gt;" style="whiteSpace=wrap;html=1;" parent="1" vertex="1">
                    <mxGeometry x="180" y="540" width="110" height="40" as="geometry"/>
                </mxCell>
                <mxCell id="145" value="&lt;span style=&quot;font-size: 18px;&quot;&gt;Server Session&lt;/span&gt;" style="whiteSpace=wrap;html=1;" vertex="1" parent="1">
                    <mxGeometry x="760" y="20" width="170" height="60" as="geometry"/>
                </mxCell>
                <mxCell id="146" value="&lt;span style=&quot;font-size: 18px;&quot;&gt;Server &lt;br&gt;Application&lt;/span&gt;" style="whiteSpace=wrap;html=1;" vertex="1" parent="1">
                    <mxGeometry x="1000" y="20" width="170" height="60" as="geometry"/>
                </mxCell>
                <mxCell id="147" value="" style="endArrow=none;dashed=1;html=1;rounded=1;fontSize=14;targetPerimeterSpacing=0;entryX=0.541;entryY=1.033;entryDx=0;entryDy=0;entryPerimeter=0;" edge="1" parent="1">
                    <mxGeometry width="50" height="50" relative="1" as="geometry">
                        <mxPoint x="850" y="1000" as="sourcePoint"/>
                        <mxPoint x="850.5" y="80" as="targetPoint"/>
                    </mxGeometry>
                </mxCell>
                <mxCell id="148" value="" style="endArrow=none;dashed=1;html=1;rounded=1;fontSize=14;targetPerimeterSpacing=0;entryX=0.541;entryY=1.033;entryDx=0;entryDy=0;entryPerimeter=0;" edge="1" parent="1">
                    <mxGeometry width="50" height="50" relative="1" as="geometry">
                        <mxPoint x="1080" y="1000" as="sourcePoint"/>
                        <mxPoint x="1087.25" y="80" as="targetPoint"/>
                    </mxGeometry>
                </mxCell>
                <mxCell id="149" style="edgeStyle=none;html=1;exitX=1;exitY=0.5;exitDx=0;exitDy=0;fontSize=14;" edge="1" parent="1">
                    <mxGeometry relative="1" as="geometry">
                        <mxPoint x="850" y="570" as="sourcePoint"/>
                        <mxPoint x="1080" y="571" as="targetPoint"/>
                        <Array as="points">
                            <mxPoint x="900" y="570"/>
                        </Array>
                    </mxGeometry>
                </mxCell>
                <mxCell id="150" value="&lt;font style=&quot;font-size: 14px;&quot;&gt;Process Command&lt;/font&gt;" style="whiteSpace=wrap;html=1;" vertex="1" parent="1">
                    <mxGeometry x="910" y="530" width="110" height="40" as="geometry"/>
                </mxCell>
                <mxCell id="151" style="edgeStyle=none;html=1;exitX=1;exitY=0.5;exitDx=0;exitDy=0;fontSize=14;" edge="1" parent="1">
                    <mxGeometry relative="1" as="geometry">
                        <mxPoint x="360" y="319.5" as="sourcePoint"/>
                        <mxPoint x="590" y="320.5" as="targetPoint"/>
                        <Array as="points">
                            <mxPoint x="410" y="319.5"/>
                        </Array>
                    </mxGeometry>
                </mxCell>
                <mxCell id="152" value="&lt;font style=&quot;font-size: 14px;&quot;&gt;Connection Established&lt;/font&gt;" style="whiteSpace=wrap;html=1;" vertex="1" parent="1">
                    <mxGeometry x="420" y="280" width="110" height="40" as="geometry"/>
                </mxCell>
                <mxCell id="153" style="edgeStyle=none;html=1;exitX=1;exitY=0.5;exitDx=0;exitDy=0;fontSize=14;" edge="1" parent="1">
                    <mxGeometry relative="1" as="geometry">
                        <mxPoint x="600" y="520" as="sourcePoint"/>
                        <mxPoint x="830" y="521" as="targetPoint"/>
                        <Array as="points">
                            <mxPoint x="650" y="520"/>
                        </Array>
                    </mxGeometry>
                </mxCell>
                <mxCell id="154" value="&lt;font style=&quot;font-size: 14px;&quot;&gt;Descrypt Command&lt;/font&gt;" style="whiteSpace=wrap;html=1;" vertex="1" parent="1">
                    <mxGeometry x="670" y="480" width="110" height="40" as="geometry"/>
                </mxCell>
                <mxCell id="155" value="" style="endArrow=classic;html=1;rounded=1;fontSize=14;targetPerimeterSpacing=0;" edge="1" parent="1">
                    <mxGeometry width="50" height="50" relative="1" as="geometry">
                        <mxPoint x="1080" y="680" as="sourcePoint"/>
                        <mxPoint x="380" y="680" as="targetPoint"/>
                        <Array as="points">
                            <mxPoint x="860" y="680"/>
                        </Array>
                    </mxGeometry>
                </mxCell>
                <mxCell id="156" value="&lt;font style=&quot;font-size: 14px;&quot;&gt;Send Encrypted Response&lt;/font&gt;" style="whiteSpace=wrap;html=1;" vertex="1" parent="1">
                    <mxGeometry x="680" y="640" width="110" height="40" as="geometry"/>
                </mxCell>
                <mxCell id="157" style="edgeStyle=none;html=1;exitX=1;exitY=0.5;exitDx=0;exitDy=0;fontSize=14;" edge="1" parent="1">
                    <mxGeometry relative="1" as="geometry">
                        <mxPoint x="360" y="760" as="sourcePoint"/>
                        <mxPoint x="840" y="760" as="targetPoint"/>
                        <Array as="points">
                            <mxPoint x="410" y="760"/>
                        </Array>
                    </mxGeometry>
                </mxCell>
                <mxCell id="158" value="&lt;font style=&quot;font-size: 14px;&quot;&gt;Terminate &lt;br&gt;Server&lt;/font&gt;" style="whiteSpace=wrap;html=1;" vertex="1" parent="1">
                    <mxGeometry x="550" y="720" width="110" height="40" as="geometry"/>
                </mxCell>
                <mxCell id="159" value="" style="endArrow=none;dashed=1;html=1;" edge="1" parent="1">
                    <mxGeometry width="50" height="50" relative="1" as="geometry">
                        <mxPoint x="-120" y="1000" as="sourcePoint"/>
                        <mxPoint x="-120.5" y="830" as="targetPoint"/>
                    </mxGeometry>
                </mxCell>
                <mxCell id="160" style="edgeStyle=none;html=1;exitX=1;exitY=0.5;exitDx=0;exitDy=0;fontSize=14;" edge="1" parent="1">
                    <mxGeometry relative="1" as="geometry">
                        <mxPoint x="360" y="440" as="sourcePoint"/>
                        <mxPoint x="590" y="441" as="targetPoint"/>
                        <Array as="points">
                            <mxPoint x="410" y="440"/>
                        </Array>
                    </mxGeometry>
                </mxCell>
                <mxCell id="161" value="&lt;font style=&quot;font-size: 14px;&quot;&gt;Receive Public Key&lt;/font&gt;" style="whiteSpace=wrap;html=1;" vertex="1" parent="1">
                    <mxGeometry x="425" y="400" width="110" height="40" as="geometry"/>
                </mxCell>
                <mxCell id="162" value="" style="endArrow=classic;html=1;rounded=1;fontSize=14;targetPerimeterSpacing=0;" edge="1" parent="1">
                    <mxGeometry width="50" height="50" relative="1" as="geometry">
                        <mxPoint x="850" y="960" as="sourcePoint"/>
                        <mxPoint x="-750" y="960" as="targetPoint"/>
                        <Array as="points">
                            <mxPoint x="630" y="960"/>
                        </Array>
                    </mxGeometry>
                </mxCell>
                <mxCell id="163" value="&lt;span style=&quot;font-size: 14px;&quot;&gt;Session Terminated&lt;/span&gt;" style="whiteSpace=wrap;html=1;" vertex="1" parent="1">
                    <mxGeometry x="-60" y="920" width="110" height="40" as="geometry"/>
                </mxCell>
            </root>
        </mxGraphModel>
    </diagram>
</mxfile>